<mxfile host="app.diagrams.net" modified="2022-11-16T02:33:27.034Z" agent="5.0 (Macintosh; Intel Mac OS X 10_15_7) AppleWebKit/605.1.15 (KHTML, like Gecko) Version/16.1 Safari/605.1.15" etag="y1KTs-gfRApgF1XMGOwE" version="20.5.3" type="github">
  <diagram id="N0vlSuxYxguQST7PCa7L" name="第 1 页">
    <mxGraphModel dx="1426" dy="825" grid="1" gridSize="10" guides="1" tooltips="1" connect="1" arrows="1" fold="1" page="1" pageScale="1" pageWidth="827" pageHeight="1169" math="0" shadow="0">
      <root>
        <mxCell id="0" />
        <mxCell id="1" parent="0" />
        <mxCell id="PrM0KJ1bldtC2Q6_5Y_B-1" value="&lt;font style=&quot;font-size: 13px;&quot;&gt;&lt;b&gt;Neoepitope:&lt;/b&gt;&lt;/font&gt;" style="text;html=1;strokeColor=none;fillColor=none;align=center;verticalAlign=middle;whiteSpace=wrap;rounded=0;" vertex="1" parent="1">
          <mxGeometry x="60" y="110" width="90" height="30" as="geometry" />
        </mxCell>
        <mxCell id="PrM0KJ1bldtC2Q6_5Y_B-2" value="&lt;b&gt;SPIKLVQKVASKIPFPDRITEESV&lt;/b&gt;" style="text;html=1;strokeColor=none;fillColor=none;align=center;verticalAlign=middle;whiteSpace=wrap;rounded=0;fontSize=13;" vertex="1" parent="1">
          <mxGeometry x="250" y="150" width="270" height="30" as="geometry" />
        </mxCell>
        <mxCell id="PrM0KJ1bldtC2Q6_5Y_B-3" value="15mer method" style="text;html=1;strokeColor=none;fillColor=none;align=center;verticalAlign=middle;whiteSpace=wrap;rounded=0;fontSize=13;" vertex="1" parent="1">
          <mxGeometry x="90" y="190" width="90" height="30" as="geometry" />
        </mxCell>
        <mxCell id="PrM0KJ1bldtC2Q6_5Y_B-4" value="&lt;b&gt;SPIKLVQKVASKIPF&lt;/b&gt;" style="text;html=1;strokeColor=none;fillColor=none;align=left;verticalAlign=middle;whiteSpace=wrap;rounded=0;fontSize=13;" vertex="1" parent="1">
          <mxGeometry x="50" y="280" width="130" height="30" as="geometry" />
        </mxCell>
        <mxCell id="PrM0KJ1bldtC2Q6_5Y_B-6" value="&lt;b&gt;PIKLVQKVASKIPFP&lt;/b&gt;" style="text;html=1;strokeColor=none;fillColor=none;align=left;verticalAlign=middle;whiteSpace=wrap;rounded=0;fontSize=13;" vertex="1" parent="1">
          <mxGeometry x="58" y="299" width="270" height="30" as="geometry" />
        </mxCell>
        <mxCell id="PrM0KJ1bldtC2Q6_5Y_B-7" value="&lt;b&gt;IKLVQKVASKIPFPD&lt;/b&gt;" style="text;html=1;strokeColor=none;fillColor=none;align=left;verticalAlign=middle;whiteSpace=wrap;rounded=0;fontSize=13;" vertex="1" parent="1">
          <mxGeometry x="66" y="320" width="270" height="30" as="geometry" />
        </mxCell>
        <mxCell id="PrM0KJ1bldtC2Q6_5Y_B-8" value="&lt;b&gt;KLVQKVASKIPFPDR&lt;/b&gt;" style="text;html=1;strokeColor=none;fillColor=none;align=left;verticalAlign=middle;whiteSpace=wrap;rounded=0;fontSize=13;" vertex="1" parent="1">
          <mxGeometry x="70" y="340" width="270" height="30" as="geometry" />
        </mxCell>
        <mxCell id="PrM0KJ1bldtC2Q6_5Y_B-9" value="&lt;b&gt;LVQKVASKIPFPDRI&lt;/b&gt;" style="text;html=1;strokeColor=none;fillColor=none;align=left;verticalAlign=middle;whiteSpace=wrap;rounded=0;fontSize=13;" vertex="1" parent="1">
          <mxGeometry x="78" y="360" width="270" height="30" as="geometry" />
        </mxCell>
        <mxCell id="PrM0KJ1bldtC2Q6_5Y_B-10" value="&lt;b&gt;VQKVASKIPFPDRIT&lt;/b&gt;" style="text;html=1;strokeColor=none;fillColor=none;align=left;verticalAlign=middle;whiteSpace=wrap;rounded=0;fontSize=13;" vertex="1" parent="1">
          <mxGeometry x="84" y="380" width="270" height="30" as="geometry" />
        </mxCell>
        <mxCell id="PrM0KJ1bldtC2Q6_5Y_B-11" value="&lt;b&gt;QKVASKIPFPDRITE&lt;/b&gt;" style="text;html=1;strokeColor=none;fillColor=none;align=left;verticalAlign=middle;whiteSpace=wrap;rounded=0;fontSize=13;" vertex="1" parent="1">
          <mxGeometry x="91" y="400" width="270" height="30" as="geometry" />
        </mxCell>
        <mxCell id="PrM0KJ1bldtC2Q6_5Y_B-12" value="&lt;b&gt;KVASKIPFPDRITEE&lt;/b&gt;" style="text;html=1;strokeColor=none;fillColor=none;align=left;verticalAlign=middle;whiteSpace=wrap;rounded=0;fontSize=13;" vertex="1" parent="1">
          <mxGeometry x="100" y="419" width="270" height="30" as="geometry" />
        </mxCell>
        <mxCell id="PrM0KJ1bldtC2Q6_5Y_B-13" value="&lt;b&gt;VASKIPFPDRITEES&lt;/b&gt;" style="text;html=1;strokeColor=none;fillColor=none;align=left;verticalAlign=middle;whiteSpace=wrap;rounded=0;fontSize=13;" vertex="1" parent="1">
          <mxGeometry x="110" y="440" width="270" height="30" as="geometry" />
        </mxCell>
        <mxCell id="PrM0KJ1bldtC2Q6_5Y_B-14" value="&lt;b&gt;ASKIPFPDRITEESV&lt;/b&gt;" style="text;html=1;strokeColor=none;fillColor=none;align=left;verticalAlign=middle;whiteSpace=wrap;rounded=0;fontSize=13;" vertex="1" parent="1">
          <mxGeometry x="117" y="460" width="270" height="30" as="geometry" />
        </mxCell>
      </root>
    </mxGraphModel>
  </diagram>
</mxfile>
